<?xml version="1.0" encoding="utf-8"?>
<!-- Generator: Adobe Illustrator 25.2.0, SVG Export Plug-In . SVG Version: 6.00 Build 0)  -->
<svg version="1.1" xmlns="http://www.w3.org/2000/svg" xmlns:xlink="http://www.w3.org/1999/xlink" x="0px" y="0px" width="148px"
	 height="32px" viewBox="0 0 148 32" style="enable-background:new 0 0 148 32;" xml:space="preserve">
<style type="text/css">
	.st0{display:none;}
	.st1{display:inline;fill:#FFFFFF;}
	.st2{fill:#71DC99;}
	.st3{fill:#FFFFFF;}
	.st4{display:inline;}
	.st5{fill:#FFFFFF;stroke:#B3B3B3;stroke-width:20.2713;stroke-linecap:round;stroke-miterlimit:10;}
</style>
<g id="Layer_1">
</g>
<g id="Layer_6">
</g>
<g id="Layer_5">
	<g>
		<g>
			<path class="st2" d="M12.1,13.5L3.5,3.2c0,0,0,0,0,0l0,0c0,0,0,0,0,0c0,0-0.1-0.1-0.1-0.1c0,0,0,0-0.1-0.1c0,0,0,0-0.1-0.1
				c0,0-0.1,0-0.1-0.1c0,0,0,0-0.1,0c0,0-0.1,0-0.1-0.1c0,0,0,0-0.1,0c0,0-0.1,0-0.1,0c0,0-0.1,0-0.1,0c0,0-0.1,0-0.1,0
				c0,0-0.1,0-0.1,0c0,0-0.1,0-0.1,0c0,0-0.1,0-0.1,0c0,0-0.1,0-0.1,0c0,0-0.1,0-0.1,0c0,0-0.1,0-0.1,0c0,0,0,0-0.1,0c0,0,0,0,0,0
				c-0.1,0-0.1,0-0.2,0c0,0,0,0,0,0c-0.1,0-0.1,0-0.2,0c0,0-0.1,0-0.1,0c0,0-0.1,0-0.1,0c0,0-0.1,0-0.1,0c0,0-0.1,0-0.1,0
				c0,0-0.1,0-0.1,0c0,0,0,0-0.1,0C1,2.8,0.9,2.8,0.9,2.8c0,0,0,0,0,0C0.8,2.9,0.8,2.9,0.7,3c0,0,0,0,0,0c0,0,0,0,0,0
				c0,0-0.1,0.1-0.1,0.1c0,0,0,0-0.1,0.1c0,0,0,0-0.1,0.1c0,0,0,0.1-0.1,0.1c0,0,0,0-0.1,0.1c0,0,0,0.1-0.1,0.1c0,0,0,0.1,0,0.1
				c0,0,0,0.1,0,0.1c0,0,0,0.1,0,0.1c0,0,0,0.1,0,0.1c0,0,0,0.1,0,0.1c0,0,0,0.1,0,0.1c0,0,0,0.1,0,0.1c0,0,0,0.1,0,0.1
				c0,0,0,0.1,0,0.1c0,0,0,0.1,0,0.1c0,0,0,0,0,0.1v25.3c0,1.1,0.9,2,2,2c1.1,0,2-0.9,2-2V9.9L9,16c0.4,0.5,0.9,0.7,1.5,0.7
				c0.4,0,0.9-0.1,1.3-0.5C12.6,15.6,12.8,14.4,12.1,13.5z"/>
			<path class="st3" d="M139.8,10.3c-1.1,0-2,0.9-2,2v0.3c-1.9-1.6-4.4-2.6-7-2.6c-6,0-11,4.9-11,11c0,6,4.9,11,11,11
				c2.7,0,5.1-1,7-2.6V30c0,1.1,0.9,2,2,2c1.1,0,2-0.9,2-2V12.3C141.8,11.2,140.9,10.3,139.8,10.3z M130.8,28c-3.9,0-7-3.2-7-7
				c0-3.9,3.2-7,7-7s7,3.2,7,7C137.8,24.9,134.7,28,130.8,28z M92.3,10.3c-1.1,0-2,0.9-2,2v10.1c0,3.2-2.6,5.7-5.7,5.7
				c-3.2,0-5.8-2.6-5.8-5.7V12.2c0-1.1-0.9-2-2-2c-1.1,0-2,0.9-2,2v10.1c0,5.3,4.3,9.7,9.7,9.7c5.3,0,9.7-4.3,9.7-9.7V12.2
				C94.2,11.2,93.4,10.3,92.3,10.3z M107.4,10c-5.3,0-9.7,4.3-9.7,9.7v10.1c0,1.1,0.9,2,2,2c1.1,0,2-0.9,2-2V19.7
				c0-3.2,2.6-5.8,5.7-5.8c3.2,0,5.8,2.6,5.8,5.8v10.1c0,1.1,0.9,2,2,2c1.1,0,2-0.9,2-2V19.7C117,14.4,112.7,10,107.4,10z M23.1,2.5
				c-1.1,0-2,0.9-2,2v19.9L16,18.2c-0.7-0.8-1.9-0.9-2.8-0.3c-0.8,0.7-0.9,1.9-0.3,2.8L21.5,31c0,0,0,0,0,0l0,0c0,0,0,0,0,0
				c0,0,0.1,0.1,0.1,0.1c0,0,0,0,0.1,0.1c0,0,0.1,0.1,0.1,0.1c0,0,0,0,0.1,0.1c0,0,0.1,0,0.1,0.1c0,0,0.1,0,0.1,0c0,0,0.1,0,0.1,0.1
				c0,0,0.1,0,0.1,0c0,0,0.1,0,0.1,0c0,0,0,0,0.1,0c0,0,0.1,0,0.1,0c0,0,0,0,0.1,0c0.1,0,0.1,0,0.2,0c0,0,0,0,0.1,0
				c0.1,0,0.1,0,0.2,0c0,0,0,0,0.1,0c0.1,0,0.1,0,0.2,0c0,0,0,0,0.1,0c0,0,0.1,0,0.1,0c0,0,0,0,0.1,0c0,0,0.1,0,0.1,0c0,0,0,0,0.1,0
				c0,0,0.1,0,0.1,0c0,0,0,0,0.1,0c0,0,0.1,0,0.1,0c0,0,0,0,0.1,0c0,0,0.1,0,0.1-0.1c0,0,0,0,0.1,0c0,0,0.1,0,0.1-0.1c0,0,0,0,0.1,0
				c0,0,0,0,0,0c0,0,0,0,0,0c0,0,0.1-0.1,0.1-0.1c0,0,0,0,0.1-0.1c0,0,0,0,0.1-0.1c0,0,0-0.1,0.1-0.1c0,0,0,0,0.1-0.1
				c0,0,0-0.1,0.1-0.1c0,0,0-0.1,0-0.1c0,0,0-0.1,0-0.1c0,0,0-0.1,0-0.1c0,0,0-0.1,0-0.1c0,0,0-0.1,0-0.1c0,0,0-0.1,0-0.1
				c0,0,0-0.1,0-0.1c0,0,0-0.1,0-0.1c0,0,0-0.1,0-0.1c0,0,0-0.1,0-0.1c0,0,0,0,0-0.1V4.5C25,3.4,24.1,2.5,23.1,2.5z M39.4,10
				c-6,0-11,4.9-11,11c0,6,4.9,11,11,11c6,0,11-4.9,11-11C50.4,14.9,45.4,10,39.4,10z M39.4,28c-3.9,0-7-3.2-7-7c0-3.9,3.2-7,7-7
				s7,3.2,7,7C46.4,24.9,43.3,28,39.4,28z M70.3,10.4c-1-0.5-2.2,0-2.7,1l-6,13.4l-6.1-13.4c-0.5-1-1.7-1.5-2.7-1
				c-1,0.5-1.5,1.7-1,2.7l8,17.5c0,0,0,0,0,0c0,0.1,0.1,0.2,0.1,0.2c0,0,0,0,0,0c0,0.1,0.1,0.1,0.1,0.2c0,0,0,0,0,0
				c0.1,0.1,0.1,0.1,0.2,0.2c0,0,0,0,0,0c0.1,0,0.1,0.1,0.2,0.1c0,0,0,0,0.1,0c0.1,0,0.1,0.1,0.2,0.1c0,0,0,0,0,0
				c0.1,0,0.2,0.1,0.2,0.1c0,0,0,0,0.1,0c0.1,0,0.1,0,0.2,0c0,0,0,0,0.1,0c0.1,0,0.2,0,0.3,0c0,0,0,0,0,0c0,0,0,0,0,0
				c0.1,0,0.2,0,0.3,0c0,0,0,0,0.1,0c0.1,0,0.1,0,0.2,0c0,0,0,0,0.1,0c0.1,0,0.2-0.1,0.2-0.1c0,0,0,0,0,0c0,0,0,0,0,0
				c0.1,0,0.1-0.1,0.2-0.1c0,0,0,0,0.1,0c0.1,0,0.1-0.1,0.2-0.1c0,0,0,0,0,0c0.1-0.1,0.1-0.1,0.2-0.2c0,0,0,0,0,0
				c0-0.1,0.1-0.1,0.1-0.2c0,0,0,0,0,0c0-0.1,0.1-0.2,0.1-0.2c0,0,0,0,0,0l7.9-17.5C71.7,12.1,71.3,10.9,70.3,10.4z M144.9,0
				c-1.8,0-3,1.4-3,3c0,1.7,1.2,3,3.1,3c1.9,0,3.1-1.4,3.1-3C148,1.4,146.8,0,144.9,0z M144.9,5.6c-1.6,0-2.5-1.1-2.5-2.5
				c0-1.4,1-2.5,2.5-2.5c1.6,0,2.6,1.1,2.6,2.5C147.5,4.5,146.5,5.6,144.9,5.6z M146.2,2.5c0-0.6-0.4-1-1.1-1h-1.2v3.2h0.6V3.5h0.7
				l0.6,1.2h0.6l-0.7-1.3C146,3.3,146.2,2.9,146.2,2.5z M145,3h-0.6V1.9h0.6c0.4,0,0.6,0.2,0.6,0.6C145.6,2.8,145.4,3,145,3z"/>
		</g>
	</g>
</g>
<g id="Layer_4">
</g>
<g id="Layer_3">
</g>
<g id="Layer_2">
</g>
</svg>
