<?xml version="1.0" encoding="UTF-8"?>
<svg id="Layer_2" data-name="Layer 2" xmlns="http://www.w3.org/2000/svg" xmlns:xlink="http://www.w3.org/1999/xlink" viewBox="0 0 252.65 69.46">
  <defs>
    <clipPath id="clippath">
      <rect x="147.07" y="5.11" width="105.58" height="58.37" style="fill: none;"/>
    </clipPath>
  </defs>
  <g id="Layer_1-2" data-name="Layer 1">
    <g>
      <g>
        <path d="M130.89,28.68c-1.59,13.81-13.19,23.85-24.58,30.3-14.57,8-31.47,10.72-47.94,10.47-16.1-.21-40.78-2.69-52.39-14.88-2.61-2.72-4.64-6.08-5.48-9.79-.06-.24-.18-.82-.23-1.05l-.05-.36-.18-1.42c-.04-.71-.05-1.42-.04-2.13.02-.35.09-1.05.11-1.4.03-.63.27-1.77.37-2.41C3.55,23.61,15.75,14.64,26.75,9.65,41.61,2.95,57.96-.18,74.23,0c12.96.14,25.68.98,37.85,5.72,8.98,3.5,19.77,11.26,18.81,22.94h0ZM127.14,28.32c.92-8.05-5.37-13.71-12.03-17.18-12.78-6.66-32.38-7.48-48.04-6.95-19.71,1.18-40.49,6.7-54.68,20.92-4.28,4.51-7.74,10.84-6.18,17.17,1.08,4.36,4.3,7.4,8.02,9.66,13.1,7.57,29.34,9.64,44.37,10.61,7.77.48,15.65.31,23.35-.94,13.09-2.14,26.9-7.12,36.43-16.63,4.47-4.47,8.04-10.33,8.75-16.66h.01Z" style="fill: #fae432;"/>
        <path d="M57.52,17c6.61-6.63,24.24-6.73,33.37-4.12.91.26,2.3.34,2.37,2.23.06,1.42.03,3.66-.07,5.2-.15,2.33-2.02,2.01-3.53,1.82-11.49-1.42-29.73-2.59-26.4,15.05,1.2,6.37,16.61,8.35,20.82,4.29.87-.84,1.83-2.95,1.42-4.36-.1-.33-5.27-.23-7.26-.26-.91,0-2.96.11-3.73-.02-1.1-.19-1.38-.59-1.43-1.7-.03-.67.08-3.4.11-3.77.11-1.36-.04-2.34,1.11-2.54,2.33-.41,6.49-.25,8.59-.21,7.12.14,11.01.04,13.52,2.85.15.17.23.4.27.64,2.19,14.57-4.91,21.08-20.34,21.5-5.06.14-10.68.09-15.47-1.76-11.23-3.64-11.21-27.38-3.35-34.83h0Z" style="fill: #fae432; fill-rule: evenodd;"/>
        <path d="M54.55,21.97c-2.85-12.69-16.26-9.74-29.41-10.17-2.67-.09-9.5,3.8-9.31,7.13-.13,10.69-.12,24.45-.32,35.26-.04,2.17.52.52,1.15,2.44.18.9.94-1.22,1-1.09,8.13,5.25,3.23,4.02,9.16,3.08.48-1.86.13-9.26.43-12.3.68-2.42,18.22,2.07,23.68-5.09,3.42-4.14,5.55-13.41,3.61-19.27h0ZM39.37,33.69c-1.89.73-4.13.85-6.31.92-1.07,0-2.88.05-4.22.08-1.14.02-2.09-.82-2.19-1.95-.24-2.82.05-6.57.14-8.28.11-1.96,1.95-1.69,4.02-1.75,2.75,0,7.51,0,9.96,1.3,5.77,3.16,3.93,7.41-1.4,9.68Z" style="fill: #fae432;"/>
        <path d="M95.86,5.35c.36,11.79-.56,23.79-.2,35.64.07,2.27-.07,4.49.07,6.36.2,2.86,1.14,5.16,5,5.16.44,0,2.24.03,2.8.03,10.74,0,9.62,0,11.44-.43,2.35-1.84,12.42-14.6,12.42-14.6-3.37,4.94-3.9,4.12-12.78,4.44-.93.03-1.68,0-3.32,0-2.43,0-3.72-1.15-4.05-3.71-.38-2.92-.01-8.26-.04-12.02-.05-6.62-.21-14.77-.09-18.01.06-1.85-.44-2.45-4.36-2.92-4.9-.6-6.63-2.71-6.88.08h-.01Z" style="fill: #fae432;"/>
      </g>
      <g style="clip-path: url(#clippath);">
        <g>
          <path d="M179.02,27.47c-.61-.12-1.07-.35-1.39-.69-.32-.34-.64-.79-.97-1.34-.21-.35-.41-.81-.62-1.36-.21-.55-.41-1.22-.62-2.01-.21-.88-.42-1.77-.62-2.65-.21-.88-.36-1.55-.47-2.01-.27,1.34-.55,2.65-.85,3.93s-.59,2.49-.89,3.63c-.3,1.14-.59,2.18-.89,3.13s-.6,1.75-.89,2.41c-.08.18-.24.27-.49.27-.28,0-.64-.11-1.1-.33-.36-.17-.6-.39-.74-.64s-.21-.54-.21-.87c0-.2.26-1.01.78-2.43.12-.3.4-1.18.82-2.62.42-1.44,1.01-3.49,1.78-6.15.27-.91.54-2.16.81-3.76.27-1.59.53-3.54.8-5.84.05-.05.17-.32.37-.8.12-.35.35-.53.68-.53.93,0,1.57.15,1.9.48v1.44c0,.61.06,1.31.17,2.12s.19,1.52.24,2.12c.05.61.08,1.12.09,1.55.08.91.21,1.67.39,2.29s.34,1.28.47,1.99c.29,1.69.79,3.04,1.5,4.05,1.19-3.39,2.16-6.43,2.92-9.1.75-2.67,1.29-5.01,1.61-7.01.1-.4.48-.61,1.13-.61.93,0,1.47.29,1.6.9.18.81.28,1.86.28,3.15,0,.2,0,.51,0,.91s-.03.94-.05,1.59c-.02.28-.03.53-.03.76v1.25c0,.2,0,.38.04.53.26,5.36.5,8.78,1.28,12.37,0,.05.02.08.02.09v.12c0,.43-.11,1.64-.94,1.67-.51,0-1.04-.23-1.6-.71-.51-.43-.89-1.12-1.15-2.08-.28-.86-.44-2.11-.48-3.75v-1.55c0-.58,0-1.14-.03-1.69-.02-.54-.03-1.04-.05-1.48s-.04-.76-.06-.97c-.07.28-.2.7-.37,1.25-.17.56-.37,1.17-.58,1.84s-.43,1.36-.65,2.05c-.22.7-.42,1.32-.59,1.88-.45,1.24-.72,1.95-.82,2.13-.38.71-.83,1.07-1.36,1.07h-.16Z" style="fill: #f9e32f;"/>
          <path d="M203.34,9.18c-.37-.37-.56-.71-.56-1.02,0-.06.03-.2.08-.43.14-.34.45-.54.94-.61l1.11-.13c2.43.5,4.95,1.82,7.56,3.98.69.57,1.25,1.16,1.68,1.79,1.38,2.02,2.08,3.91,2.09,5.68,0,1-.17,1.87-.54,2.61-.14.32-.27.64-.4.99-.13.34-.26.67-.4.99-.28.66-.65,1.27-1.1,1.85-.45.57-.89,1.13-1.32,1.68-.42.54-.86,1.09-1.32,1.63-1.08,1.29-2.06,2.24-2.94,2.84-.28.34-.59.69-.91,1.03-.33.34-.65.52-.96.52-.2,0-.53-.08-.99-.23-.46-.15-.77-.4-.95-.74-.09-1.2-.14-2.48-.15-3.85,0-.71,0-1.58.03-2.61.02-1.03.06-2.24.11-3.64s.08-2.61.11-3.64c.02-1.03.03-1.9.03-2.61,0-.91-.03-1.8-.08-2.65-.05-.86-.1-1.67-.17-2.44l-.95-.98h0ZM207.9,26.92c3.2-3.24,4.8-6.32,4.78-9.23,0-.2,0-.4-.03-.6s-.04-.4-.07-.6c-.27-1.8-1.8-3.37-4.61-4.72-.05,1.63-.09,3.27-.12,4.94s-.04,3.4-.03,5.2c0,.83,0,1.65.02,2.48,0,.83.02,1.67.06,2.52" style="fill: #f9e32f;"/>
          <path d="M202.95,32.17c-.09-1.57-.38-3.13-.86-4.63-.45-1.4-.9-2.91-1.28-4.29-.67-2.43-1.33-5.14-1.98-8.12-.05-.5-.12-1.02-.2-1.55-.08-.53-.16-1.05-.24-1.55-.21-1.21-.67-2.12-1.38-2.72-.28-.23-.6-.34-.95-.34-.48,0-.8.18-.95.54-.32.81-.67,1.78-1.02,2.91-.36,1.13-.75,2.45-1.17,3.97-.96,3.47-1.67,5.82-2.12,7.07-.05.18-.29.32-.72.42-.43.08-.69.19-.79.35-.1.1-.15.23-.15.38s.18.37.53.64c.33.25.5.48.5.68-.07.83-.48,2.18-1.23,4.03-.55,1.37-1.6,5.55-1.6,6.54v.34c.06.51.5.88,1.34,1.13.1.05.2.07.28.07h.25c.38,0,.63-.16.76-.46.4-.94,1.59-5.35,2.01-7.22.22-1.01.42-1.86.61-2.54.19-.68.34-1.23.46-1.63.55-.48,1.32-.79,2.31-.92l2.58-.24c.51,1.29,1.16,3.53,1.5,5.44.29,1.52.91,2.46,1.87,2.84.36.14.76.09,1.07-.14.09-.07.2-.16.3-.25h0c.19-.17.29-.42.28-.68v-.03M194.09,22.78c.54-2.08,1.19-4.18,1.93-6.31.13.51.25,1.01.37,1.51.12.51.24,1.01.37,1.51.13.56.23,1.09.31,1.61s.14,1.03.2,1.53c-1.72.01-2.78.06-3.18.13" style="fill: #f9e32f;"/>
          <path d="M218.05,14.35c.05-.58.1-1.44.17-2.58-.43-.11-1.13-.98-1.14-1.79.02-.73.25-1.42,1.1-1.85l1.68-.69c.48-.26,1.01-.49,1.59-.69.58-.21,1.22-.41,1.93-.62.63-.18,1.25-.35,1.85-.5.61-.16,1.22-.31,1.85-.47.05-.03.2-.04.46-.04.62,0,1.33.21,2.13.64.16.09.28.23.35.41.03.09.07.19.11.3.1.28.15.48.16.61,0,.23-.09.39-.26.49-.48.21-1.06.42-1.74.64-.68.22-1.48.46-2.38.72s-1.7.5-2.38.72c-.68.22-1.26.43-1.74.64-.1.3-.19.82-.27,1.56-.08.73-.15,1.68-.19,2.85.4.15.87.22,1.4.22.2,0,.45-.02.74-.06.29-.04.64-.09,1.04-.14s.75-.1,1.04-.14.54-.06.74-.06c.71,0,1.31.14,1.82.44.36.5.54.83.54.98,0,.18-.09.32-.26.42-.02.03-.08.08-.17.15s-.21.2-.36.38c-.15.2-.4.31-.76.31-.53.1-1.5.19-2.92.25-1.19.06-2.14.22-2.84.47-.47,1.77-.7,3.25-.69,4.44,0,.68.11,1.26.31,1.74,1.04.73,2.75,1.08,5.13,1.07.18,0,.35,0,.51-.02.16-.01.35-.02.55-.02s.42-.1.64-.29c.23-.19.42-.29.57-.29.05,0,.09,0,.11-.02.02-.01.06-.02.11-.02.61,0,1,.54,1.19,1.62,0,.05,0,.1.02.15,0,.05.02.1.02.15,0,.35-.1.66-.32.93-.21.27-.5.41-.85.44-.2,0-.41,0-.61.02-.2.01-.41.02-.61.03-2.48.02-4.73-.21-6.74-.72-.71-.17-1.36-.56-1.94-1.16-.59-.6-.92-1.28-1-2.04-.05-.56-.1-1.09-.14-1.59-.04-.51.06-2.34.1-2.81.1-1.25-.13-1.15-.07-2.86.05-1.33.44-1.4.43-2.3" style="fill: #f9e32f;"/>
          <path d="M234.37,23.87c.04-.53.06-1.02.06-1.45s.02-.81.06-1.15c-.11-.06-.19-.13-.26-.22-.07-.08-.1-.18-.1-.28,0-.11.06-.23.18-.33.12-.11.23-.17.32-.19.04-.5.07-.99.08-1.46.02-.47.03-.94.02-1.41,0-.26,0-.52-.02-.78,0-.26-.04-.5-.08-.75-.46-.08-.77-.3-.93-.65,0-.25.09-.41.27-.49s.37-.11.56-.11h.39c.19,0,.41.02.65.06.25.04.51.09.79.17s.55.18.83.32c.8.41,1.35.82,1.66,1.22s.46.8.46,1.21v.13s0,.1-.02.15c-.06.27-.17.52-.33.76-.16.23-.34.45-.55.65-.21.2-.45.39-.7.56s-.51.35-.77.52l-.28.19c.08.14.19.24.3.3.12.07.25.14.41.21l.16.05c.86.57,1.3,1.24,1.3,2.02,0,.57-.16,1.08-.5,1.55s-.83.89-1.46,1.26l-1.5.89c-.1.07-.23.11-.38.11-.32,0-.52-.14-.6-.42l-.02-2.62v-.02ZM235.89,25.17c.11-.11.22-.2.33-.28.1-.08.21-.16.31-.25.31-.24.53-.46.66-.66.13-.19.23-.44.3-.75,0-.05.02-.11.02-.16v-.17c0-.31-.11-.59-.33-.83-.26-.18-.48-.3-.66-.37-.18-.07-.31-.11-.39-.11h-.17c-.06,0-.13.01-.19.03-.02.47-.04.91-.05,1.3-.02.4-.03.8-.02,1.19,0,.17,0,.33.03.49.02.16.04.34.06.54h.11v.03ZM236.09,19.43c.05-.02.13-.06.22-.1.09-.05.18-.1.25-.15l.28-.24c.15-.07.29-.18.42-.31s.25-.27.35-.43c.1-.15.18-.31.24-.48.06-.17.09-.33.09-.49v-.16c-.06-.39-.39-.68-.99-.89-.02-.01-.06-.03-.12-.06-.06-.03-.12-.07-.2-.11-.07-.04-.15-.08-.23-.11s-.14-.05-.18-.05h-.09s-.07.01-.12.02c0,.08,0,.17,0,.27v.3c0,.42,0,.89-.02,1.41s-.03,1.06-.02,1.63l.14-.06h-.01Z" style="fill: #f9e32f;"/>
          <path d="M241.16,19.76c-.49-1.32-.94-2.44-1.36-3.36s-.8-1.69-1.15-2.3c-.04-.05-.06-.12-.06-.2,0-.15.08-.29.25-.42s.34-.2.5-.2c.07.01.14.03.2.06.07.03.15.05.24.08.09.03.2.05.34.08.18.26.35.55.53.89.17.33.36.7.55,1.11l.93,2.08.8-2.44c.29-.94.64-1.72,1.03-2.34.11-.19.3-.29.57-.29.38,0,.7.13.96.38-.19.78-.45,1.67-.79,2.66-.34,1-.77,2.12-1.28,3.36-.6,1.45-1.09,2.67-1.46,3.66-.37.99-.64,1.76-.81,2.3-.07.27-.1.55-.1.82,0,.11,0,.21,0,.31,0,.09,0,.18,0,.25v.3c-.04.48-.31.72-.81.72-.22,0-.45-.08-.7-.24s-.37-.35-.37-.57c.02-.5.09-1.04.21-1.6.11-.56.29-1.17.53-1.82l1.25-3.28h-.02Z" style="fill: #f9e32f;"/>
          <path d="M160.06,40.47c-.31-.31-.47-.6-.47-.86,0-.05.02-.17.07-.36.12-.29.38-.46.79-.51l.93-.11c2.04.42,4.16,1.53,6.35,3.34.58.48,1.05.98,1.41,1.5,1.16,1.7,1.75,3.29,1.76,4.77,0,.84-.15,1.57-.45,2.2-.12.27-.23.54-.34.83s-.22.57-.34.83c-.24.55-.55,1.07-.93,1.55-.38.48-.75.95-1.11,1.41s-.73.92-1.11,1.37c-.91,1.08-1.73,1.88-2.47,2.39-.24.29-.49.58-.77.87-.27.29-.54.44-.81.44-.17,0-.44-.06-.83-.19-.38-.13-.65-.34-.8-.62-.08-1.01-.12-2.09-.13-3.24,0-.6,0-1.33.02-2.19.02-.86.05-1.88.09-3.06s.07-2.19.09-3.06c.02-.86.03-1.59.02-2.19,0-.77-.03-1.51-.07-2.23-.04-.72-.09-1.4-.14-2.05l-.8-.82h.04ZM163.89,55.38c2.69-2.73,4.03-5.31,4.02-7.76,0-.17,0-.34-.02-.5,0-.17-.03-.34-.06-.5-.23-1.51-1.52-2.83-3.87-3.97-.04,1.37-.07,2.75-.1,4.15s-.04,2.86-.03,4.37c0,.7,0,1.39,0,2.09,0,.7.02,1.4.05,2.12" style="fill: #f9e32f;"/>
          <path d="M158.07,50.65c.41.29.98-.02.99-.52v-.1c.04-1.02.17-1.38.08-2.66v-.19c.02-1-.12-2-.4-2.96-.15-.53-.31-1.07-.46-1.63-.6-2.15-1.18-4.55-1.76-7.19-.05-.45-.11-.91-.18-1.37-.07-.47-.14-.93-.21-1.37-.19-1.07-.59-1.87-1.22-2.41-.25-.2-.53-.3-.84-.3-.43,0-.7.16-.84.47-.29.72-.59,1.58-.91,2.57-.32,1-.66,2.17-1.03,3.51-.85,3.07-1.48,5.15-1.87,6.25-.04.16-.26.28-.64.37-.38.07-.61.17-.7.31-.09.09-.13.2-.13.34,0,.13.16.32.47.57.29.22.44.42.44.6-.06.74-.42,1.93-1.08,3.56-.49,1.21-.72,2.25-.72,3.13v.3c.05.45.44.78,1.18,1,.09.04.17.07.25.07h.22c.34,0,.56-.14.67-.41.35-.83.71-2.07,1.08-3.73.2-.9.38-1.65.54-2.25.16-.61.3-1.09.41-1.45.49-.43,1.17-.7,2.04-.82l2.28-.22c.45,1.14.83,2.56,1.13,4.25.21,1.08.6,1.83,1.18,2.26h0M152.34,42.18c.48-1.84,1.05-3.7,1.71-5.58.11.45.22.89.33,1.34.1.45.21.89.33,1.34.11.49.21.97.28,1.42.07.46.13.91.18,1.36-1.52,0-2.46.05-2.82.12" style="fill: #f9e32f;"/>
          <path d="M174.58,54.58c-.35-1-.7-2.27-1.07-3.81-.37-1.55-.75-3.43-1.15-5.64-.75-4.15-1.56-7.33-2.42-9.56.29-.49.53-.73.71-.72.17-.09.33-.13.49-.12.3.02.85.35,1.65,1.01.33.89.64,1.86.91,2.89s.54,2.14.79,3.34c.11.54.23,1.14.35,1.8.12.67.24,1.35.35,2.03.11.69.22,1.36.32,2.03s.2,1.28.29,1.83c.31-1.5.72-3.01,1.21-4.53.5-1.52.97-2.9,1.43-4.15,1.03-2.68,2.08-5.04,3.16-7.07.23-.37.59-.54,1.1-.51.08,0,.16,0,.24,0s.17.03.27.08c.1.05.19.13.29.26.06.06.13.11.21.13.08.03.16.06.24.09.08.04.14.08.19.15.05.06.07.17.06.31,0,.14-.07.34-.19.6-.88,1.45-2.16,4.15-3.86,8.09-.51,1.13-1.16,3.07-1.93,5.83-.36,1.32-.7,2.46-1.01,3.43s-.62,1.79-.92,2.46c-.19.19-.41.28-.66.27-.28-.02-.64-.19-1.07-.52" style="fill: #f9e32f;"/>
          <path d="M193.96,61.12c-.07-1.21-.1-7.54.14-11.03l.64-8.82c.02-.48.44-.73,1.28-.73.18,0,.42.06.72.19.31.13.64.34.99.62.35.68.75,1.55,1.2,2.62.44,1.07.92,2.36,1.44,3.87.51,1.44,1.01,2.82,1.49,4.13.48,1.31.93,2.46,1.35,3.44l.72-13.67c.04-.44.36-.66.95-.66.2,0,.43.03.69.09l.63.16c.22.09.36.24.43.46l-.32,8.24c-.16,1.78-.29,3.39-.38,4.84-.09,1.45-.13,2.76-.12,3.95v1.13c0,.38.03.78.07,1.2,0,.33-.13.62-.41.87-.27.25-.57.38-.9.38-.68,0-1.25-.45-1.72-1.37-.36-.68-.74-1.51-1.17-2.51-.42-1-.87-2.09-1.35-3.3-.48-1.2-.98-2.49-1.49-3.87-.51-1.38-1.04-2.8-1.57-4.27-.04-.13-.1-.2-.17-.2-.15,0-.25.15-.29.46-.08.79-.14,1.64-.18,2.55s.15,6.95.18,7.79-.04,3.32,0,4.2v.13c0,.59-.18.99-.55,1.19-.15.15-.32.23-.49.23-.18,0-.37-.06-.59-.19l-.63-.29c-.29-.09-.46-.35-.53-.79l-.07-1.08v.04Z" style="fill: #f9e32f;"/>
          <path d="M212.2,56.45c0,.13,0,.25,0,.35s-.03.19-.05.28c-.11.33-.33.5-.65.5-.64-.02-1.16-.28-1.57-.8-.41-.51-.64-1.09-.68-1.72-.07-.81-.11-1.67-.11-2.56,0-1.45.08-3.74.25-6.88.08-1.32.14-2.49.17-3.54.04-1.04.05-1.95.05-2.71v-.62h-.43c-.26,0-.56.02-.9.04s-.72.07-1.13.14c-.24.05-.43.09-.56.12s-.32.05-.56.05c-1.05,0-1.93-.27-2.64-.84-.27-.55-.4-.84-.4-.89,0-.17.08-.34.23-.49.35-.11.76-.22,1.21-.32.46-.1,1.03-.19,1.71-.26,1-.11,1.88-.27,2.63-.47,1.1-.3,2.25-.38,3.39-.29.29.02.58.03.88.03.92,0,1.86-.13,2.83-.38.13-.02.34-.07.62-.15s3.3-.26,3.61-.35c.52-.16,1.04-.24,1.54-.24.07,0,.14,0,.21,0,.08,0,.15.02.21.02.33,0,.7-.15,1.1.16.19.15.28.53.29.92-.19.79-.56,1.25-1.11,1.39-.7.18-1.59.38-2.68.59-1.08.22-5.22.57-6.97.87-.2,2.76-.35,5.26-.45,7.5-.1,2.24-.14,4.29-.13,6.15,0,.7,0,1.39.03,2.06.02.67.04,1.34.06,2.02v.33-.02Z" style="fill: #f9e32f;"/>
          <path d="M218.61,42.09c0,1.05-.02,2.38-.07,3.98-.04,1.18-.07,2.19-.1,3.03-.03.83-.04,1.5-.04,2.01,0,1.12.05,2.12.12,2.99.02.46.23,1.34.61,2.63.91-1.04,1.63-2.41,2.14-4.12.09-.28.21-.82.38-1.6s.38-1.81.64-3.08c.21-.99.44-1.86.67-2.62.24-.76.79-3.34,1.03-3.87.17-.31.3-.89.38-1.74.08-.86.21-1.45.38-1.78.22-.53.63-.79,1.24-.8.77,0,1.32.23,1.65.71-.08.77-.23,1.66-.43,2.67s-.8,4.11-1.17,5.43c-.49,1.74-.87,3.12-1.14,4.15-.27,1.03-.44,1.73-.53,2.11-.47,2.22-1.38,4.24-2.72,6.07-.8,1.14-1.79,1.72-2.95,1.73-.99,0-1.73-.61-2.21-1.86-.85-2.12-1.28-4.54-1.29-7.26,0-.79.07-1.71.21-2.76.15-1.05.22-2.18.21-3.39-.02,0-.04-.69-.05-2.07,0-1.36.51-2.04,1.57-2.05.2,0,.41.05.64.16s.47.23.71.36c.02,0,.04,0,.05.02,0,0,.03.02.05.02v.95l.02-.02Z" style="fill: #f9e32f;"/>
          <path d="M229.04,52.44c.04-.72.11-1.51.19-2.37s.12-1.78.11-2.78l-.02-4.06c0-1.71,0-3.26.03-4.66.03-1.39.14-2.68.33-3.88.24-1.42,1.51-2.13,3.82-2.15h.52c1.34.04,2.51.7,3.51,1.99.93,1.14,1.39,2.43,1.4,3.87,0,1.17-.42,2.34-1.28,3.51-.76,1.05-1.66,1.9-2.7,2.55-.22.13-.4.24-.52.36-.12.11-.18.24-.18.39,0,.17.06.32.17.43s.31.28.58.5l1.2,1,4.16,3.85c.85.79,1.59,1.52,2.21,2.2.62.68,1.11,1.33,1.46,1.95.08.12.11.23.11.33,0,.57-.59,1.01-1.78,1.31-1.32-.99-2.97-2.54-4.95-4.66-1.12-1.18-2.09-2.18-2.89-2.98s-1.47-1.44-2.02-1.91c-.05.32-.1.91-.16,1.75s-.13,1.95-.22,3.32c-.11,2.06-.33,3.7-.64,4.92-.05,0-.17.06-.37.17-.2.11-.4.17-.6.17-.02,0-.05,0-.07-.02-.03,0-.05-.02-.08-.02-1.09-.27-1.65-1.02-1.65-2.26,0-.2,0-.43.03-.69.02-.26.06-.53.11-.8l.18-1.34h0ZM236.13,37.28c-.08-.52-.3-.99-.66-1.41s-.94-.63-1.74-.62c-.6,0-.97.19-1.11.57-.05.35-.09.7-.12,1.06-.04.36-.05.71-.05,1.06,0,.32.04,1.15.13,2.5,0,.27,0,.52.02.74,0,.22.02.43.02.63s0,.4,0,.6c0,.2-.02.37-.02.52,2.05-1.53,3.21-3.01,3.47-4.45.02-.17.04-.34.05-.48,0-.15.02-.28.02-.41v-.3h0Z" style="fill: #f9e32f;"/>
          <path d="M240.89,41.92c.04-.2.21-.37.49-.53.33-.18.51-.35.56-.53.02-.09.05-.38.09-.89.04-.5.09-1.25.15-2.24-1.21-.21-1.81-.67-1.82-1.37.02-.64.4-1.14,1.14-1.52l2.1-.87c.42-.22.87-.42,1.38-.6.5-.18,1.06-.36,1.67-.54.55-.16,1.08-.3,1.61-.44.53-.13,1.06-.27,1.61-.4.04-.02.17-.03.39-.04.59,0,1.28.22,2.08.68.02.09.08.25.17.49s.13.42.13.53c0,.2-.08.34-.23.43-.42.18-.92.36-1.51.55s-1.28.4-2.07.62c-.79.22-1.48.43-2.07.62-.59.19-1.09.37-1.51.55-.09.26-.17.71-.24,1.35s-.13,1.46-.17,2.47c.35.13.76.19,1.22.19.18,0,.39-.02.64-.05s.55-.07.9-.12c.35-.05.65-.09.9-.12s.47-.05.64-.05c.61,0,1.14.12,1.58.38.31.44.46.72.47.85,0,.15-.08.27-.23.36-.02.02-.07.07-.15.13-.08.07-.18.18-.31.33-.13.18-.35.27-.66.27-.46.09-1.3.16-2.53.21-1.03.05-1.85.19-2.46.41-.41,1.54-.61,2.82-.6,3.85,0,.59.09,1.1.27,1.51.9.63,2.38.94,4.45.93.15,0,.3,0,.44-.02.14,0,.3-.02.48-.02.17,0,.36-.08.56-.25s.36-.25.49-.25c.04,0,.08,0,.1-.02.02,0,.05-.02.1-.02.53,0,.87.47,1.03,1.41,0,.04,0,.09.02.13,0,.04.02.09.02.13,0,.31-.09.58-.27.81-.19.23-.43.36-.74.38-.2,0-.39,0-.59.02-.2,0-.39.02-.59.02-2.1,0-4.01-.19-5.73-.62-.62-.15-1.18-.49-1.68-1.01-.51-.52-.8-1.11-.87-1.77-.05-.48-.09-.94-.12-1.38-.04-.44-.05-.88-.06-1.31,0-.44,0-.86.04-1.27s.07-.79.11-1.17c-.55-.39-.83-.75-.83-1.08v-.13.02Z" style="fill: #f9e32f;"/>
          <path d="M180.81,52.17c.04-.2.21-.37.49-.53.33-.18.51-.35.56-.53.02-.09.05-.38.09-.89.04-.5.17-2.01.23-3-.36-.08-1.37-1.93-.22-3.08l1.65-.68c.42-.22.87-.42,1.38-.6.5-.18,1.06-.36,1.67-.54.55-.16,1.08-.3,1.61-.44.53-.13,1.06-.27,1.61-.4.04-.02.17-.03.39-.04.59,0,1.28.22,2.08.68.02.09.08.25.17.49s.13.42.13.53c0,.2-.08.34-.23.43-.42.18-.92.36-1.51.55s-1.28.4-2.07.62c-.79.22-1.48.43-2.07.62-.59.19-1.09.37-1.51.55-.09.26-.17.71-.24,1.35s-.21,2.22-.25,3.23c.35.13.76.19,1.22.19.18,0,.39-.02.64-.05s.55-.07.9-.12c.35-.05.65-.09.9-.12s.47-.05.64-.05c.61,0,1.14.12,1.58.38.31.44.46.72.47.85,0,.15-.08.27-.23.36-.02.02-.07.07-.15.13-.08.07-.18.18-.31.33-.13.18-.35.27-.66.27-.46.09-1.3.16-2.53.21-1.03.05-1.85.19-2.46.41-.41,1.54-.52,2.03-.51,3.06,0,.59.09,1.1.27,1.51.9.63,2.38.94,4.45.93.15,0,.3,0,.44-.02.14,0,.3-.02.48-.02.17,0,.36-.08.56-.25s.36-.25.49-.25c.04,0,.08,0,.1-.02.02,0,.05-.02.1-.02.53,0,.87.47,1.03,1.41,0,.04,0,.09.02.13,0,.04.02.09.02.13,0,.31-.09.58-.27.81-.19.23-.43.36-.74.38-.2,0-.39,0-.59.02-.2,0-.39.02-.59.02-2.1,0-4.01-.19-5.73-.62-.62-.15-1.18-.49-1.68-1.01-.51-.52-.8-1.11-.87-1.77-.05-.48-.09-.94-.12-1.38-.04-.44-.14-1.38-.11-1.79s.07-.79.11-1.17c-.55-.39-.83-.75-.83-1.08v-.13.02Z" style="fill: #f9e32f;"/>
        </g>
      </g>
    </g>
  </g>
</svg>